<?xml version="1.0" encoding="utf-8"?>
<!-- Generator: Adobe Illustrator 23.0.1, SVG Export Plug-In . SVG Version: 6.00 Build 0)  -->
<svg version="1.1" id="Layer_1" xmlns="http://www.w3.org/2000/svg" xmlns:xlink="http://www.w3.org/1999/xlink" x="0px" y="0px"
	 viewBox="0 0 149.2 172.2" style="enable-background:new 0 0 149.2 172.2;" xml:space="preserve">
<style type="text/css">
	.st0{fill:#FFFFFF;}
	.st1{fill:#585858;}
</style>
<polygon class="st0" points="149.2,129.2 74.6,172.2 0,129.2 0,43.1 74.6,0 149.2,43.1 "/>
<title>Artboard 1</title>
<polygon class="st1" points="140.6,124.3 74.6,162.4 8.5,124.3 8.5,48 74.6,9.9 140.6,48 "/>
<ellipse class="st0" cx="74.6" cy="130.7" rx="3.6" ry="3.4"/>
<ellipse class="st0" cx="109.7" cy="110.6" rx="3.6" ry="3.4"/>
<ellipse class="st0" cx="108.9" cy="54.2" rx="3.6" ry="3.4"/>
<ellipse class="st0" cx="39.5" cy="110.6" rx="3.6" ry="3.4"/>
<path class="st0" d="M77.7,132.5l-6.1-3.5c4.5-6.3,10.4-11.5,17.1-15.4c8.6-5,20.1-6.3,20.6-6.3l0.8,6.7l-0.4-3.3l0.4,3.3
	c-0.1,0-10.5,1.2-17.7,5.4C86.6,122.6,81.6,127.1,77.7,132.5z"/>
<path class="st0" d="M71.5,132.5c-3.9-5.4-9-9.9-14.7-13.2c-7.3-4.2-17.6-5.4-17.7-5.4l0.9-6.7c0.5,0.1,12,1.4,20.6,6.3
	c6.8,3.8,12.6,9.1,17.1,15.4L71.5,132.5z"/>
<polygon class="st0" points="105.4,54.3 112.6,54.2 113.3,110.6 106.1,110.6 "/>
<ellipse class="st0" cx="40.2" cy="54.2" rx="3.6" ry="3.4"/>
<polygon class="st0" points="35.9,110.6 36.6,54.2 43.8,54.3 43.1,110.6 "/>
<polygon class="st0" points="38.5,57.2 41.9,51.3 111.4,86.3 108,92.2 "/>
<polygon class="st0" points="37.8,86.3 107.3,51.3 110.7,57.2 41.2,92.3 "/>
<path class="st0" d="M78.2,131l-7.2-0.5c0.4-4.4,1.1-8.7,2.2-12.9c2.4-9.6,6.1-16.7,10.9-21c6.8-6.1,13.2-9.8,19-10.9
	c4.9-0.9,7.7,0.3,8.2,0.6l-3.3,6l0.2,0.1c-0.1,0-6.4-2.2-19,9.1c-3.7,3.3-6.8,9.4-8.9,17.7C79.3,123,78.6,127,78.2,131z"/>
<path class="st0" d="M71,131c0-0.2-1.7-21.3-10.9-29.5c-12.7-11.3-19-9.1-19-9.1l0.2-0.1l-3.4-5.9c0.5-0.3,3.3-1.5,8.2-0.6
	c5.8,1.1,12.2,4.8,19,10.8c4.8,4.3,8.4,11.3,10.9,21c1.1,4.2,1.8,8.6,2.2,12.9L71,131z"/>
</svg>
