<svg id="Layer_1" data-name="Layer 1" xmlns="http://www.w3.org/2000/svg" viewBox="0 0 149.17 172.24"><defs><style>.cls-1{fill:#585858;}.cls-2{fill:#fff;}</style></defs><title>Artboard 1</title><polygon class="cls-1" points="149.17 129.18 74.58 172.24 0 129.18 0 43.06 74.58 0 149.17 43.06 149.17 129.18"/><ellipse class="cls-2" cx="74.59" cy="130.74" rx="3.6" ry="3.36"/><ellipse class="cls-2" cx="109.66" cy="110.6" rx="3.6" ry="3.36"/><ellipse class="cls-2" cx="108.94" cy="54.23" rx="3.6" ry="3.36"/><ellipse class="cls-2" cx="39.52" cy="110.6" rx="3.6" ry="3.36"/><path class="cls-2" d="M77.65,132.49,71.51,129a53.69,53.69,0,0,1,17.1-15.37c8.61-5,20.14-6.29,20.63-6.34l.85,6.66-.43-3.34.43,3.34c-.1,0-10.46,1.22-17.7,5.39A47.68,47.68,0,0,0,77.65,132.49Z"/><path class="cls-2" d="M71.51,132.48a47.52,47.52,0,0,0-14.74-13.16c-7.27-4.2-17.59-5.38-17.7-5.39l.86-6.67c.48.06,12,1.39,20.62,6.35A53.61,53.61,0,0,1,77.66,129Z"/><polygon class="cls-2" points="105.37 54.27 112.57 54.2 113.25 110.56 106.05 110.64 105.37 54.27"/><ellipse class="cls-2" cx="40.23" cy="54.23" rx="3.6" ry="3.36"/><polygon class="cls-2" points="35.91 110.56 36.59 54.19 43.79 54.26 43.11 110.63 35.91 110.56"/><polygon class="cls-2" points="38.49 57.17 41.91 51.27 111.39 86.33 107.96 92.24 38.49 57.17"/><polygon class="cls-2" points="37.8 86.35 107.27 51.29 110.7 57.19 41.22 92.26 37.8 86.35"/><path class="cls-2" d="M78.18,131,71,130.51a85,85,0,0,1,2.22-12.94c2.43-9.63,6.09-16.68,10.88-21,6.83-6.11,13.24-9.76,19-10.86,4.88-.92,7.71.33,8.23.58L108,92.24l.15.08c-.06,0-6.37-2.23-19,9.12-3.72,3.32-6.77,9.43-8.86,17.67A78.4,78.4,0,0,0,78.18,131Z"/><path class="cls-2" d="M71,131c0-.21-1.73-21.31-10.9-29.52-12.68-11.35-19-9.14-19.05-9.12l.16-.08L37.8,86.34c.52-.25,3.35-1.5,8.24-.58,5.8,1.09,12.2,4.75,19,10.85,4.78,4.28,8.44,11.33,10.88,21a85,85,0,0,1,2.23,12.94Z"/></svg>